<svg width="40" height="40" viewBox="0 0 40 40" fill="none" xmlns="http://www.w3.org/2000/svg">
<path d="M0.5 8C0.5 3.85786 3.85786 0.5 8 0.5H32C36.1421 0.5 39.5 3.85786 39.5 8V32C39.5 36.1421 36.1421 39.5 32 39.5H8C3.85786 39.5 0.5 36.1421 0.5 32V8Z" fill="#EFF4FF"/>
<path d="M0.5 8C0.5 3.85786 3.85786 0.5 8 0.5H32C36.1421 0.5 39.5 3.85786 39.5 8V32C39.5 36.1421 36.1421 39.5 32 39.5H8C3.85786 39.5 0.5 36.1421 0.5 32V8Z" stroke="#528BFF"/>
<path d="M20.5 30C25.7467 30 30 25.7467 30 20.5C30 15.2533 25.7467 11 20.5 11C15.2533 11 11 15.2533 11 20.5C11 25.7467 15.2533 30 20.5 30Z" stroke="#2970FF" stroke-width="1.5" stroke-linecap="round" stroke-linejoin="round"/>
<path d="M22.6929 16.7002L28.1459 26.1432" stroke="#2970FF" stroke-width="1.5" stroke-linecap="round" stroke-linejoin="round"/>
<path d="M18.3069 16.7002H29.2129" stroke="#2970FF" stroke-width="1.5" stroke-linecap="round" stroke-linejoin="round"/>
<path d="M16.1082 20.5026L21.5612 11.0596" stroke="#2970FF" stroke-width="1.5" stroke-linecap="round" stroke-linejoin="round"/>
<path d="M18.3048 24.3024L12.8518 14.8594" stroke="#2970FF" stroke-width="1.5" stroke-linecap="round" stroke-linejoin="round"/>
<path d="M22.6926 24.2998H11.7866" stroke="#2970FF" stroke-width="1.5" stroke-linecap="round" stroke-linejoin="round"/>
<path d="M24.89 20.5L19.437 29.943" stroke="#2970FF" stroke-width="1.5" stroke-linecap="round" stroke-linejoin="round"/>
</svg>
