<svg width="40" height="40" viewBox="0 0 40 40" fill="none" xmlns="http://www.w3.org/2000/svg">
<path d="M0.5 8C0.5 3.85786 3.85786 0.5 8 0.5H32C36.1421 0.5 39.5 3.85786 39.5 8V32C39.5 36.1421 36.1421 39.5 32 39.5H8C3.85786 39.5 0.5 36.1421 0.5 32V8Z" fill="#EFF4FF"/>
<path d="M0.5 8C0.5 3.85786 3.85786 0.5 8 0.5H32C36.1421 0.5 39.5 3.85786 39.5 8V32C39.5 36.1421 36.1421 39.5 32 39.5H8C3.85786 39.5 0.5 36.1421 0.5 32V8Z" stroke="#528BFF"/>
<path d="M16.625 17.75C16.625 17.8495 16.5855 17.9448 16.5152 18.0152C16.4448 18.0855 16.3495 18.125 16.25 18.125C16.1505 18.125 16.0552 18.0855 15.9848 18.0152C15.9145 17.9448 15.875 17.8495 15.875 17.75C15.875 17.6505 15.9145 17.5552 15.9848 17.4848C16.0552 17.4145 16.1505 17.375 16.25 17.375C16.3495 17.375 16.4448 17.4145 16.5152 17.4848C16.5855 17.5552 16.625 17.6505 16.625 17.75ZM16.625 17.75H16.25M20.375 17.75C20.375 17.8495 20.3355 17.9448 20.2652 18.0152C20.1948 18.0855 20.0995 18.125 20 18.125C19.9005 18.125 19.8052 18.0855 19.7348 18.0152C19.6645 17.9448 19.625 17.8495 19.625 17.75C19.625 17.6505 19.6645 17.5552 19.7348 17.4848C19.8052 17.4145 19.9005 17.375 20 17.375C20.0995 17.375 20.1948 17.4145 20.2652 17.4848C20.3355 17.5552 20.375 17.6505 20.375 17.75ZM20.375 17.75H20M24.125 17.75C24.125 17.8495 24.0855 17.9448 24.0152 18.0152C23.9448 18.0855 23.8495 18.125 23.75 18.125C23.6505 18.125 23.5552 18.0855 23.4848 18.0152C23.4145 17.9448 23.375 17.8495 23.375 17.75C23.375 17.6505 23.4145 17.5552 23.4848 17.4848C23.5552 17.4145 23.6505 17.375 23.75 17.375C23.8495 17.375 23.9448 17.4145 24.0152 17.4848C24.0855 17.5552 24.125 17.6505 24.125 17.75ZM24.125 17.75H23.75M10.25 20.76C10.25 22.36 11.373 23.754 12.957 23.987C14.044 24.147 15.142 24.27 16.25 24.356V29L20.434 24.817C20.6412 24.6107 20.9197 24.4918 21.212 24.485C23.1636 24.437 25.1105 24.2707 27.042 23.987C28.627 23.754 29.75 22.361 29.75 20.759V14.741C29.75 13.139 28.627 11.746 27.043 11.513C24.711 11.1707 22.357 10.9993 20 11C17.608 11 15.256 11.175 12.957 11.513C11.373 11.746 10.25 13.14 10.25 14.741V20.759V20.76Z" stroke="#2970FF" stroke-width="1.5" stroke-linecap="round" stroke-linejoin="round"/>
</svg>
