<svg width="40" height="40" viewBox="0 0 40 40" fill="none" xmlns="http://www.w3.org/2000/svg">
<path d="M0.5 8C0.5 3.85786 3.85786 0.5 8 0.5H32C36.1421 0.5 39.5 3.85786 39.5 8V32C39.5 36.1421 36.1421 39.5 32 39.5H8C3.85786 39.5 0.5 36.1421 0.5 32V8Z" fill="#EFF4FF"/>
<path d="M0.5 8C0.5 3.85786 3.85786 0.5 8 0.5H32C36.1421 0.5 39.5 3.85786 39.5 8V32C39.5 36.1421 36.1421 39.5 32 39.5H8C3.85786 39.5 0.5 36.1421 0.5 32V8Z" stroke="#528BFF"/>
<path d="M29 23C29 23.5304 28.7893 24.0391 28.4142 24.4142C28.0391 24.7893 27.5304 25 27 25H15L11 29V13C11 12.4696 11.2107 11.9609 11.5858 11.5858C11.9609 11.2107 12.4696 11 13 11H27C27.5304 11 28.0391 11.2107 28.4142 11.5858C28.7893 11.9609 29 12.4696 29 13V23Z" stroke="#2970FF" stroke-width="1.5" stroke-linecap="round" stroke-linejoin="round"/>
<line x1="14.355" y1="15.041" x2="24.1883" y2="15.041" stroke="#2970FF" stroke-width="1.5" stroke-linecap="round"/>
<line x1="14.355" y1="19.708" x2="20.1883" y2="19.708" stroke="#2970FF" stroke-width="1.5" stroke-linecap="round"/>
</svg>
