<svg width="48" height="48" viewBox="0 0 48 48" fill="none" xmlns="http://www.w3.org/2000/svg">
<path d="M0 6C0 2.68629 2.68629 0 6 0H33.3278C35.0287 0 36.6497 0.721929 37.7876 1.98621L42.75 7.5L46.7361 12.625C47.5553 13.6782 48 14.9744 48 16.3086V42C48 45.3137 45.3137 48 42 48H6C2.68629 48 0 45.3137 0 42V6Z" fill="#8B5CF6"/>
<path d="M17.9018 28.4709L13.1789 18.6793C12.9804 18.2679 12.5159 18 12.0003 18C11.4846 18 11.019 18.2679 10.8204 18.6793L6.09869 28.4709C5.82695 29.0338 6.13585 29.6799 6.78616 29.9147C6.94758 29.9729 7.11364 30 7.27738 30C7.77788 30 8.25284 29.7441 8.45722 29.3207L9.31076 27.5518H14.6897L15.5433 29.3207C15.8139 29.8826 16.5617 30.1495 17.2132 29.9147C17.8647 29.6799 18.1724 29.0338 17.9018 28.4709ZM10.3745 25.3445L12.0003 21.9732L13.626 25.3445H10.3745Z" fill="white"/>
<path d="M22.2114 27.75C21.8434 27.75 21.48 27.589 21.2422 27.2838C20.841 26.769 20.9495 26.0385 21.4842 25.6525L23.7726 24L21.4843 22.3475C20.9496 21.9614 20.8411 21.231 21.2423 20.7162C21.6434 20.2014 22.402 20.0969 22.9366 20.4832L26.5159 23.0678C26.8208 23.2878 27 23.6333 27 24C27 24.3667 26.8207 24.7122 26.5159 24.9322L22.9366 27.5168C22.7188 27.674 22.464 27.75 22.2114 27.75Z" fill="white"/>
<path d="M42 28.8963C42 29.5054 41.4275 30 40.7225 30C38.8075 30 37.0992 29.2204 35.9994 28.0104C34.9008 29.2204 33.1925 30 31.2775 30C30.5714 30 30 29.5054 30 28.8963C30 28.2863 30.5714 27.7926 31.2775 27.7926C33.1762 27.7926 34.722 26.4572 34.722 24.8157V24.288H32.2216C31.5167 24.288 30.9442 23.7933 30.9442 23.1843C30.9442 22.5742 31.5167 22.0806 32.2216 22.0806H34.722V19.1037C34.722 18.4946 35.2945 18 35.9994 18C36.7055 18 37.2769 18.4946 37.2769 19.1037V22.0806H39.7772C40.4833 22.0806 41.0547 22.5742 41.0547 23.1843C41.0547 23.7933 40.4833 24.288 39.7772 24.288H37.2769V24.8157C37.2769 26.4572 38.8226 27.7926 40.7225 27.7926C41.4275 27.7926 42 28.2863 42 28.8963Z" fill="white"/>
</svg>
