<svg width="48" height="48" viewBox="0 0 48 48" fill="none" xmlns="http://www.w3.org/2000/svg">
<path d="M0 6C0 2.68629 2.68629 0 6 0H33.3278C35.0287 0 36.6497 0.721929 37.7876 1.98621L42.75 7.5L46.7361 12.625C47.5553 13.6782 48 14.9744 48 16.3086V42C48 45.3137 45.3137 48 42 48H6C2.68629 48 0 45.3137 0 42V6Z" fill="#F43F5E"/>
<path d="M30.25 31.5C30.913 31.5 31.5489 31.2366 32.0178 30.7678C32.4866 30.2989 32.75 29.663 32.75 29V25.25C32.75 24.587 32.4866 23.9511 32.0178 23.4822C31.5489 23.0134 30.913 22.75 30.25 22.75H17.75C17.087 22.75 16.4511 23.0134 15.9822 23.4822C15.5134 23.9511 15.25 24.587 15.25 25.25V29C15.25 29.663 15.5134 30.2989 15.9822 30.7678C16.4511 31.2366 17.087 31.5 17.75 31.5H30.25ZM15.25 22.455V19C15.25 18.337 15.5134 17.7011 15.9822 17.2322C16.4511 16.7634 17.087 16.5 17.75 16.5H22.2325C22.7295 16.5002 23.2061 16.6977 23.5575 17.0492L25.3258 18.8167C25.4425 18.9342 25.6017 19 25.7675 19H30.25C30.913 19 31.5489 19.2634 32.0178 19.7322C32.4866 20.2011 32.75 20.837 32.75 21.5V22.455C32.0632 21.8389 31.1727 21.4987 30.25 21.5H17.75C16.8273 21.4987 15.9368 21.8389 15.25 22.455Z" fill="white"/>
</svg>
