<svg width="61" height="60" viewBox="0 0 61 60" fill="none" xmlns="http://www.w3.org/2000/svg">
<circle cx="30.5" cy="30" r="30" fill="#EFF4FF"/>
<path opacity="0.4" d="M22.1667 25H38.8333C42.5152 25 45.5 27.9848 45.5 31.6667V38.3333C45.5 42.0152 42.5152 45 38.8333 45H22.1667C18.4848 45 15.5 42.0152 15.5 38.3333V31.6667C15.5 27.9848 18.4848 25 22.1667 25Z" fill="#2970FF"/>
<path fill-rule="evenodd" clip-rule="evenodd" d="M24.6161 20.8839C24.128 20.3957 24.128 19.6043 24.6161 19.1161L29.6162 14.1161C30.1043 13.628 30.8957 13.628 31.3838 14.1161L36.3838 19.1161C36.872 19.6043 36.872 20.3957 36.3838 20.8839C35.8957 21.372 35.1043 21.372 34.6162 20.8839L31.75 18.0178V35C31.75 35.6903 31.1903 36.25 30.5 36.25C29.8097 36.25 29.25 35.6903 29.25 35V18.0178L26.3839 20.8839C25.8957 21.372 25.1043 21.372 24.6161 20.8839Z" fill="#2970FF"/>
</svg>
