<svg width="40" height="40" viewBox="0 0 40 40" fill="none" xmlns="http://www.w3.org/2000/svg">
<path d="M0 8C0 3.58172 3.58172 0 8 0H32C36.4183 0 40 3.58172 40 8V32C40 36.4183 36.4183 40 32 40H8C3.58172 40 0 36.4183 0 32V8Z" fill="#F9FAFB"/>
<path d="M10.4717 30L10.4717 11L29.3683 11" stroke="#667085" stroke-width="1.5"/>
<path d="M28.8965 11V29.525H9.99991" stroke="#667085" stroke-width="1.5" stroke-dasharray="4.92 4.92"/>
<path d="M22.6364 17.7295V15.3343C22.6364 15.2155 22.5406 15.1191 22.4222 15.1191H18.5209H14.6195C14.5011 15.1191 14.4053 15.2155 14.4053 15.3343V17.7295C14.4053 17.8486 14.5011 17.945 14.6195 17.945H15.7572C15.8754 17.945 15.9712 17.8486 15.9712 17.7295V16.9091C15.9712 16.79 16.0672 16.6936 16.1854 16.6936H17.5235C17.642 16.6936 17.7378 16.79 17.7378 16.9091V22.8292C17.7378 22.9483 17.642 23.0447 17.5235 23.0447H16.9383C16.8199 23.0447 16.7241 23.141 16.7241 23.2601V24.404C16.7241 24.5228 16.8199 24.6191 16.9383 24.6191H18.5209H20.1034C20.2218 24.6191 20.3176 24.5228 20.3176 24.404V23.2601C20.3176 23.141 20.2218 23.0447 20.1034 23.0447H19.5182C19.3997 23.0447 19.3039 22.9483 19.3039 22.8292V16.9091C19.3039 16.79 19.3997 16.6936 19.5182 16.6936H20.8563C20.9745 16.6936 21.0705 16.79 21.0705 16.9091V17.7295C21.0705 17.8486 21.1663 17.945 21.2845 17.945H22.4222C22.5406 17.945 22.6364 17.8486 22.6364 17.7295Z" fill="#667085"/>
<g clip-path="url(#clip0_2202_24629)">
<path d="M24.4526 23.6875V26.5907" stroke="#667085" stroke-linecap="round" stroke-linejoin="round"/>
<path d="M23.0012 25.1387H25.9044" stroke="#667085" stroke-linecap="round" stroke-linejoin="round"/>
</g>
<defs>
<clipPath id="clip0_2202_24629">
<rect width="4.97684" height="4.97684" fill="white" transform="translate(22.0068 22.6914)"/>
</clipPath>
</defs>
</svg>
