<svg width="56" height="56" viewBox="0 0 56 56" fill="none" xmlns="http://www.w3.org/2000/svg">
    <rect x="4" y="4" width="48" height="48" rx="24" fill="#FEE4E2"/>
    <rect x="4" y="4" width="48" height="48" rx="24" stroke="#FEF3F2" stroke-width="8"/>
    <path d="M28 25V28.75M37 28C37 29.1819 36.7672 30.3522 36.3149 31.4442C35.8626 32.5361 35.1997 33.5282 34.364 34.364C33.5282 35.1997 32.5361 35.8626 31.4442 36.3149C30.3522 36.7672 29.1819 37 28 37C26.8181 37 25.6478 36.7672 24.5558 36.3149C23.4639 35.8626 22.4718 35.1997 21.636 34.364C20.8003 33.5282 20.1374 32.5361 19.6851 31.4442C19.2328 30.3522 19 29.1819 19 28C19 25.6131 19.9482 23.3239 21.636 21.636C23.3239 19.9482 25.6131 19 28 19C30.3869 19 32.6761 19.9482 34.364 21.636C36.0518 23.3239 37 25.6131 37 28ZM28 31.75H28.008V31.758H28V31.75Z" stroke="#D92D20" stroke-width="1.5" stroke-linecap="round" stroke-linejoin="round"/>
</svg>
