<svg width="28" height="28" viewBox="0 0 28 28" fill="none" xmlns="http://www.w3.org/2000/svg">
<path d="M12.503 3.74014C12.503 3.34862 12.1856 3.03125 11.7941 3.03125H3.21455C2.82304 3.03125 2.50567 3.34862 2.50567 3.74014V4.01434C2.50567 4.33142 2.24862 4.58846 1.93155 4.58846C1.54003 4.58846 1.22266 4.90584 1.22266 5.29735V11.9407H26.032V4.5884H13.3513C12.8828 4.5884 12.503 4.20861 12.503 3.74014Z" fill="#F79009"/>
<path d="M25.3704 5.96484H2.79492V17.5942H25.3704V5.96484Z" fill="white"/>
<path d="M26.5823 24.9701H1.41772C0.634748 24.9701 0 24.3353 0 23.5524V8.48549C0 7.70251 0.634748 7.06777 1.41772 7.06777H16.6415C17.2238 7.06777 17.7468 6.71177 17.9604 6.17005L18.6499 4.42115C18.8635 3.87944 19.3865 3.52344 19.9688 3.52344H26.5822C27.3651 3.52344 27.9999 4.15819 27.9999 4.94116V23.5524C28 24.3353 27.3653 24.9701 26.5823 24.9701Z" fill="#FDB022"/>
</svg>
