<svg width="20" height="20" viewBox="0 0 20 20" fill="none" xmlns="http://www.w3.org/2000/svg">
<g clip-path="url(#clip0_3585_19559)">
<path d="M18.4375 16.1875H10.5625C10.252 16.1875 10 15.9355 10 15.625C10 15.3145 10 4.6855 10 4.375C10 4.0645 10.252 3.8125 10.5625 3.8125H18.4375C18.748 3.8125 19 4.0645 19 4.375V15.625C19 15.9355 18.748 16.1875 18.4375 16.1875Z" fill="white"/>
<path d="M12.8125 7.1875H10.5625C10.252 7.1875 10 6.9355 10 6.625C10 6.3145 10.252 6.0625 10.5625 6.0625H12.8125C13.123 6.0625 13.375 6.3145 13.375 6.625C13.375 6.9355 13.123 7.1875 12.8125 7.1875Z" fill="#23A566"/>
<path d="M12.8125 9.4375H10.5625C10.252 9.4375 10 9.1855 10 8.875C10 8.5645 10.252 8.3125 10.5625 8.3125H12.8125C13.123 8.3125 13.375 8.5645 13.375 8.875C13.375 9.1855 13.123 9.4375 12.8125 9.4375Z" fill="#23A566"/>
<path d="M12.8125 11.6875H10.5625C10.252 11.6875 10 11.4355 10 11.125C10 10.8145 10.252 10.5625 10.5625 10.5625H12.8125C13.123 10.5625 13.375 10.8145 13.375 11.125C13.375 11.4355 13.123 11.6875 12.8125 11.6875Z" fill="#23A566"/>
<path d="M12.8125 13.9375H10.5625C10.252 13.9375 10 13.6855 10 13.375C10 13.0645 10.252 12.8125 10.5625 12.8125H12.8125C13.123 12.8125 13.375 13.0645 13.375 13.375C13.375 13.6855 13.123 13.9375 12.8125 13.9375Z" fill="#23A566"/>
<path d="M16.1875 7.1875H15.0625C14.752 7.1875 14.5 6.9355 14.5 6.625C14.5 6.3145 14.752 6.0625 15.0625 6.0625H16.1875C16.498 6.0625 16.75 6.3145 16.75 6.625C16.75 6.9355 16.498 7.1875 16.1875 7.1875Z" fill="#23A566"/>
<path d="M16.1875 9.4375H15.0625C14.752 9.4375 14.5 9.1855 14.5 8.875C14.5 8.5645 14.752 8.3125 15.0625 8.3125H16.1875C16.498 8.3125 16.75 8.5645 16.75 8.875C16.75 9.1855 16.498 9.4375 16.1875 9.4375Z" fill="#23A566"/>
<path d="M16.1875 11.6875H15.0625C14.752 11.6875 14.5 11.4355 14.5 11.125C14.5 10.8145 14.752 10.5625 15.0625 10.5625H16.1875C16.498 10.5625 16.75 10.8145 16.75 11.125C16.75 11.4355 16.498 11.6875 16.1875 11.6875Z" fill="#23A566"/>
<path d="M16.1875 13.9375H15.0625C14.752 13.9375 14.5 13.6855 14.5 13.375C14.5 13.0645 14.752 12.8125 15.0625 12.8125H16.1875C16.498 12.8125 16.75 13.0645 16.75 13.375C16.75 13.6855 16.498 13.9375 16.1875 13.9375Z" fill="#23A566"/>
<path d="M10.9214 1.69263C10.7931 1.58576 10.621 1.53963 10.459 1.57338L1.459 3.26088C1.19237 3.31038 1 3.54213 1 3.81326V16.1883C1 16.4583 1.19237 16.6911 1.459 16.7406L10.459 18.4281C10.4928 18.4349 10.5276 18.4383 10.5625 18.4383C10.693 18.4383 10.8201 18.3933 10.9214 18.3089C11.0508 18.202 11.125 18.0423 11.125 17.8758V2.12576C11.125 1.95813 11.0508 1.79951 10.9214 1.69263Z" fill="#23A566"/>
<path d="M8.04125 12.6059L6.26263 10.573L8.0615 8.26002C8.25275 8.01477 8.20775 7.66152 7.96363 7.47027C7.7195 7.27902 7.36625 7.32402 7.17388 7.56814L5.50775 9.71014L4.10375 8.10589C3.89788 7.86964 3.54238 7.84827 3.31063 8.05302C3.07663 8.25777 3.053 8.61327 3.25775 8.84614L4.80463 10.6146L3.23638 12.6306C3.04513 12.8759 3.09013 13.2291 3.33425 13.4204C3.43775 13.5003 3.56038 13.5385 3.68075 13.5385C3.84838 13.5385 4.01375 13.4643 4.12513 13.3214L5.5595 11.4764L7.19525 13.345C7.30663 13.4733 7.46188 13.5385 7.61825 13.5385C7.74988 13.5385 7.8815 13.4924 7.98838 13.399C8.22238 13.1943 8.246 12.8388 8.04125 12.6059Z" fill="#FAFAFA"/>
</g>
<defs>
<clipPath id="clip0_3585_19559">
<rect width="18" height="18" fill="white" transform="translate(1 1)"/>
</clipPath>
</defs>
</svg>
