<svg width="28" height="30" viewBox="0 0 28 30" fill="none" xmlns="http://www.w3.org/2000/svg">
<path d="M27.8065 5.89378V7.14554H0.192505V5.89378C0.192505 3.12743 2.43321 0.886719 5.19956 0.886719H22.7995C25.5658 0.886719 27.8065 3.12743 27.8065 5.89378Z" fill="#3C5B87"/>
<path d="M27.8086 7.14844V21.1149C27.8086 23.8849 25.5649 26.1244 22.7992 26.1244H5.19956C2.43388 26.1244 0.19458 23.8849 0.19458 21.1149V7.14844H27.8086Z" fill="#E5E8EF"/>
<path d="M27.8065 21.1133V22.59C27.8065 25.3563 25.5658 27.597 22.7995 27.597H5.19956C2.43321 27.597 0.192505 25.3563 0.192505 22.59V21.1133C0.192505 23.8796 2.43321 26.1203 5.19956 26.1203H22.7995C25.5658 26.1203 27.8065 23.8796 27.8065 21.1133Z" fill="#CDD4DF"/>
<path d="M5.23129 4.01455C5.23129 4.54404 4.80091 4.97441 4.28274 4.97441C3.75298 4.97441 3.32288 4.54404 3.32288 4.01455C3.32288 3.48506 3.75298 3.05469 4.28274 3.05469C4.80091 3.05469 5.23129 3.48506 5.23129 4.01455Z" fill="#F97066"/>
<path d="M9.01501 4.01455C9.01501 4.54404 8.58463 4.97441 8.06619 4.97441C7.5367 4.97441 7.10632 4.54404 7.10632 4.01455C7.10632 3.48506 7.5367 3.05469 8.06619 3.05469C8.58463 3.05469 9.01501 3.48506 9.01501 4.01455Z" fill="#FFA300"/>
<path d="M12.7984 4.01455C12.7984 4.54404 12.3791 4.97441 11.8496 4.97441C11.3201 4.97441 10.89 4.54404 10.89 4.01455C10.89 3.48506 11.3201 3.05469 11.8496 3.05469C12.3791 3.05469 12.7984 3.48506 12.7984 4.01455Z" fill="#4CC66E"/>
<path d="M7.96114 10.5746V13.7429C7.96114 14.1491 7.63266 14.4777 7.2264 14.4777H4.05798C3.6518 14.4777 3.32324 14.1491 3.32324 13.7429V10.5746C3.32324 10.1719 3.6518 9.83984 4.05798 9.83984H7.2264C7.63266 9.83984 7.96114 10.1719 7.96114 10.5746Z" fill="#ADB9CA"/>
<path d="M24.9476 11.0126V16.0698C24.9476 16.7181 24.4233 17.2426 23.7748 17.2426H11.4174C10.7691 17.2426 10.2446 16.7181 10.2446 16.0698V11.0126C10.2446 10.3698 10.7691 9.83984 11.4174 9.83984H23.7748C24.4233 9.83984 24.9476 10.3698 24.9476 11.0126Z" fill="#ADB9CA"/>
<path d="M7.96114 19.5316V22.6999C7.96114 23.1061 7.63266 23.4347 7.2264 23.4347H4.05798C3.6518 23.4347 3.32324 23.1061 3.32324 22.6999V19.5316C3.32324 19.1289 3.6518 18.7969 4.05798 18.7969H7.2264C7.63266 18.7969 7.96114 19.1289 7.96114 19.5316Z" fill="#ADB9CA"/>
<path d="M7.9617 16.6384V16.6418C7.9617 16.9755 7.69195 17.2455 7.35815 17.2455H3.92614C3.59243 17.2455 3.32251 16.9755 3.32251 16.6418V16.6384C3.32251 16.3046 3.59243 16.0312 3.92614 16.0312H7.35815C7.69195 16.0312 7.9617 16.3046 7.9617 16.6384Z" fill="#ADB9CA"/>
<path d="M14.8838 20.0094V20.0129C14.8838 20.3466 14.6141 20.6165 14.2803 20.6165H10.8483C10.5145 20.6165 10.2446 20.3466 10.2446 20.0129V20.0094C10.2446 19.6757 10.5145 19.4023 10.8483 19.4023H14.2803C14.6141 19.4023 14.8838 19.6757 14.8838 20.0094Z" fill="#ADB9CA"/>
<path d="M20.7951 20.0094V20.0129C20.7951 20.3466 20.5253 20.6165 20.1915 20.6165H16.7595C16.4258 20.6165 16.1559 20.3466 16.1559 20.0129V20.0094C16.1559 19.6757 16.4258 19.4023 16.7595 19.4023H20.1915C20.5253 19.4023 20.7951 19.6757 20.7951 20.0094Z" fill="#ADB9CA"/>
<path d="M24.9476 20.0094V20.0129C24.9476 20.3466 24.6778 20.6165 24.344 20.6165H22.6709C22.3372 20.6165 22.0673 20.3466 22.0673 20.0129V20.0094C22.0673 19.6757 22.3372 19.4023 22.6709 19.4023H24.344C24.6778 19.4023 24.9476 19.6757 24.9476 20.0094Z" fill="#ADB9CA"/>
<path d="M13.125 22.8298V22.8332C13.125 23.1669 12.8552 23.4369 12.5214 23.4369H10.8483C10.5145 23.4369 10.2446 23.1669 10.2446 22.8332V22.8298C10.2446 22.496 10.5145 22.2227 10.8483 22.2227H12.5214C12.8552 22.2227 13.125 22.496 13.125 22.8298Z" fill="#ADB9CA"/>
<path d="M17.2597 22.8298V22.8332C17.2597 23.1669 16.99 23.4369 16.6562 23.4369H14.983C14.6493 23.4369 14.3794 23.1669 14.3794 22.8332V22.8298C14.3794 22.496 14.6493 22.2227 14.983 22.2227H16.6562C16.99 22.2227 17.2597 22.496 17.2597 22.8298Z" fill="#ADB9CA"/>
<path d="M21.3942 22.8298V22.8332C21.3942 23.1669 21.1245 23.4369 20.7907 23.4369H19.1175C18.7838 23.4369 18.5139 23.1669 18.5139 22.8332V22.8298C18.5139 22.496 18.7838 22.2227 19.1175 22.2227H20.7907C21.1245 22.2227 21.3942 22.496 21.3942 22.8298Z" fill="#ADB9CA"/>
<path d="M14.2686 17.8633L14.2689 17.8636C14.2643 17.8726 14.2597 17.8816 14.255 17.8905C14.2596 17.8816 14.264 17.8722 14.2686 17.8633Z" fill="#079CFF"/>
<path d="M16.8461 20.4418C16.8374 20.4462 16.8282 20.4505 16.8196 20.455C16.8284 20.4505 16.837 20.4459 16.8458 20.4414L16.8461 20.4418Z" fill="#079CFF"/>
<path d="M16.8451 20.4407L14.2686 17.8641C17.502 11.6163 21.985 8.22168 25.3544 7.94583C26.1607 7.88046 26.8289 8.54875 26.7636 9.35504C26.4877 12.7244 23.093 17.2073 16.8451 20.4407Z" fill="#079CFF"/>
<path d="M16.8455 20.4398C16.0435 20.8552 15.195 21.2504 14.2987 21.6208L13.3297 20.6518C14.2261 20.2814 15.0745 19.8862 15.8764 19.4707C22.1234 16.237 25.5185 11.7552 25.7946 8.38476C25.8062 8.24243 25.7946 8.10584 25.764 7.97656C26.3742 8.1189 26.8173 8.6899 26.7636 9.35378C26.4875 12.7242 23.0924 17.2059 16.8455 20.4398Z" fill="#005EEE"/>
<path d="M10.6246 28.5541C9.74128 28.9173 8.78974 29.1149 7.83381 29.1235H3.80818C3.63243 29.125 3.47549 29.0553 3.36217 28.9419C3.20529 28.7851 3.12974 28.541 3.21398 28.2969C3.30404 28.0354 3.56558 27.8756 3.84156 27.8756L4.28902 27.8756C5.01254 27.8756 5.61982 27.2974 5.61546 26.5725C5.61252 26.1309 5.66484 25.6834 5.76943 25.2534C7.20619 19.4002 13.0871 20.4056 13.0871 20.4056L14.2987 21.6172C14.2987 21.6172 15.1732 26.6786 10.6246 28.5541Z" fill="#FFD80C"/>
<path d="M10.6246 28.5598C9.74128 28.923 8.78974 29.1206 7.83381 29.1293H3.80818C3.63243 29.1307 3.47549 29.061 3.36217 28.9477C3.20529 28.7908 3.12974 28.5467 3.21398 28.3027C3.30404 28.0412 3.56558 27.8814 3.84156 27.8814L4.28902 27.8814C4.62902 27.8813 4.94135 27.755 5.17668 27.5458L6.27208 27.5371C7.22802 27.5284 8.17956 27.3613 9.06285 26.9981C12.9287 25.4044 12.8764 21.5081 12.7747 20.375C12.9738 20.391 13.0871 20.4113 13.0871 20.4113L14.2987 21.6229C14.2987 21.6229 15.1732 26.6844 10.6246 28.5598Z" fill="#FFBE00"/>
<path d="M16.8455 20.4405C16.0436 20.856 15.1951 21.2512 14.2987 21.6216L13.0872 20.41C13.4576 19.5137 13.8528 18.6652 14.2683 17.8633L16.8455 20.4405Z" fill="#435E88"/>
<path d="M16.8455 20.4378C16.0435 20.8532 15.195 21.2484 14.2987 21.6188L13.3297 20.6499C14.2261 20.2794 15.0745 19.8843 15.8764 19.4688L16.8455 20.4378Z" fill="#33527D"/>
</svg>
