<svg width="40" height="40" viewBox="0 0 40 40" fill="none" xmlns="http://www.w3.org/2000/svg">
<path d="M0 8C0 3.58172 3.58172 0 8 0H32C36.4183 0 40 3.58172 40 8V32C40 36.4183 36.4183 40 32 40H8C3.58172 40 0 36.4183 0 32V8Z" fill="#F9FAFB"/>
<path d="M18.175 29H14.035C13.4637 29 13 28.5348 13 27.9615L13 12.0385C13 11.4652 13.4637 11 14.035 11H25.765C26.3363 11 26.8 11.4652 26.8 12.0385V20.3462M18.175 29H18.52C20.716 29 22.822 28.1247 24.3748 26.5667C25.9276 25.0087 26.8 22.8956 26.8 20.6923V20.3462M18.175 29C18.9985 29 19.7883 28.6718 20.3706 28.0875C20.9529 27.5033 21.28 26.7109 21.28 25.8846V24.5C21.28 23.9268 21.7437 23.4615 22.315 23.4615H23.695C24.5185 23.4615 25.3083 23.1333 25.8906 22.5491C26.4729 21.9648 26.8 21.1724 26.8 20.3462" stroke="#667085" stroke-width="1.5" stroke-linecap="round" stroke-linejoin="round"/>
</svg>
