<svg width="48" height="48" viewBox="0 0 48 48" fill="none" xmlns="http://www.w3.org/2000/svg">
<path d="M0 6C0 2.68629 2.68629 0 6 0H33.3278C35.0287 0 36.6497 0.721929 37.7876 1.98621L42.75 7.5L46.7361 12.625C47.5553 13.6782 48 14.9744 48 16.3086V42C48 45.3137 45.3137 48 42 48H6C2.68629 48 0 45.3137 0 42V6Z" fill="#14B8A6"/>
<path d="M18.6875 15.25C17.8246 15.25 17.125 15.9496 17.125 16.8125V31.1875C17.125 32.0504 17.8246 32.75 18.6875 32.75H29.3125C30.1754 32.75 30.875 32.0504 30.875 31.1875V24.625C30.875 22.8991 29.4759 21.5 27.75 21.5H26.1875C25.3246 21.5 24.625 20.8004 24.625 19.9375V18.375C24.625 16.6491 23.2259 15.25 21.5 15.25H18.6875Z" fill="white"/>
<path d="M24.8093 15.5133C25.4733 16.2804 25.875 17.2808 25.875 18.375V19.9375C25.875 20.1101 26.0149 20.25 26.1875 20.25H27.75C28.8442 20.25 29.8446 20.6517 30.6117 21.3157C29.8719 18.4832 27.6418 16.2531 24.8093 15.5133Z" fill="white"/>
</svg>
