<svg width="120" height="120" viewBox="0 0 120 120" fill="none" xmlns="http://www.w3.org/2000/svg">
<circle cx="60" cy="60" r="60" fill="#F2F4F7"/>
<path d="M57.3271 41.678C57.3271 40.9788 56.7603 40.4121 56.0612 40.4121H40.7406C40.0414 40.4121 39.4747 40.9788 39.4747 41.678V42.1676C39.4747 42.7338 39.0157 43.1928 38.4495 43.1928C37.7503 43.1928 37.1836 43.7596 37.1836 44.4587V56.3219H81.486V43.1927H58.8419C58.0053 43.1927 57.3271 42.5145 57.3271 41.678Z" fill="#98A2B3"/>
<path d="M80.3036 45.6504H39.9902V66.4171H80.3036V45.6504Z" fill="white"/>
<path d="M82.4684 79.5886H37.5316C36.1335 79.5886 35 78.4551 35 77.057V50.1518C35 48.7537 36.1335 47.6202 37.5316 47.6202H64.717C65.7567 47.6202 66.6907 46.9845 67.0721 46.0171L68.3034 42.8941C68.6848 41.9267 69.6188 41.291 70.6586 41.291H82.4681C83.8663 41.291 84.9998 42.4245 84.9998 43.8227V77.057C85 78.4551 83.8665 79.5886 82.4684 79.5886Z" fill="#D0D5DD"/>
<circle cx="85" cy="80" r="9" fill="#17B26A"/>
<path d="M80.5 80.1825L83.9054 83.5879L89.0135 75.9258" stroke="white" stroke-linecap="round" stroke-linejoin="round"/>
</svg>
