<svg width="20" height="19" viewBox="0 0 20 19" fill="none" xmlns="http://www.w3.org/2000/svg">
<path d="M12.792 10.842H14.872V14.248H12.792V18.174H8.06V14.248H0V10.426L6.162 0H12.792V10.842ZM3.588 10.738V10.842H8.06V3.354H7.956L3.588 10.738Z" fill="#008E42"/>
<path d="M19.9758 15.2341V18.1941H9.17578V17.7541C9.17578 14.1541 10.9958 12.7141 13.2958 11.3741L14.5358 10.6141C15.6158 9.97406 16.3558 9.29406 16.3558 8.33406C16.3558 7.31406 15.8158 6.69406 14.7558 6.69406C13.6958 6.69406 12.9758 7.39406 12.8958 9.01406L9.27578 8.93406C9.43578 5.55406 11.8158 3.91406 14.7558 3.91406C17.7758 3.91406 19.9758 5.29406 19.9758 8.11406C19.9758 11.0941 18.3358 11.9741 16.3358 13.1141L15.3558 13.7141C14.3958 14.2941 13.5958 14.9141 13.5758 15.2341H19.9758Z" fill="#FFBAF2"/>
</svg>
