<svg width="16" height="16" viewBox="0 0 16 16" fill="none" xmlns="http://www.w3.org/2000/svg">
<path d="M2.2857 13.2414H1.63264C1.19964 13.2414 0.78437 13.3867 0.47819 13.6454C0.17201 13.904 0 14.2549 0 14.6207C0 14.9865 0.17201 15.3373 0.47819 15.596C0.78437 15.8547 1.19964 16 1.63264 16H10.4489C11.6774 16.0006 12.8713 15.6567 13.8435 15.0222C14.8157 14.3878 15.5111 13.4987 15.8208 12.4944C16.1305 11.4901 16.0369 10.4274 15.5546 9.47283C15.0724 8.51831 14.2288 7.726 13.1562 7.22014C13.6963 6.51245 14.0006 5.6948 14.037 4.85328C14.0734 4.01177 13.8404 3.17755 13.3628 2.43847C12.8851 1.6994 12.1804 1.08282 11.3228 0.653682C10.4652 0.224543 9.48648 -0.00127662 8.48975 5.42862e-06H1.63264C1.19964 5.42862e-06 0.78437 0.145325 0.47819 0.403996C0.17201 0.662667 0 1.0135 0 1.37932C0 1.74513 0.17201 2.09596 0.47819 2.35463C0.78437 2.61331 1.19964 2.75863 1.63264 2.75863H2.2857V13.2414ZM5.55099 3.03449C5.55099 2.96132 5.58539 2.89116 5.64663 2.83942C5.70786 2.78769 5.79092 2.75863 5.87752 2.75863H8.41008C8.97489 2.75173 9.52358 2.91773 9.95481 3.22597C10.386 3.53421 10.6707 3.96387 10.7562 4.43559C10.7985 4.70822 10.7716 4.98534 10.6771 5.24846C10.5826 5.51159 10.4228 5.75466 10.2083 5.96146C9.99379 6.16826 9.72955 6.33403 9.4332 6.44771C9.13685 6.56139 8.81521 6.62036 8.48975 6.62069H5.87752C5.79092 6.62069 5.70786 6.59163 5.64663 6.53989C5.58539 6.48816 5.55099 6.41799 5.55099 6.34483V3.03449ZM5.55099 9.65517C5.55099 9.58201 5.58539 9.51184 5.64663 9.46011C5.70786 9.40837 5.79092 9.37931 5.87752 9.37931H10.4489C10.7744 9.37964 11.096 9.43861 11.3924 9.55229C11.6887 9.66597 11.953 9.83174 12.1675 10.0385C12.382 10.2453 12.5418 10.4884 12.6363 10.7515C12.7307 11.0147 12.7577 11.2918 12.7154 11.5644C12.6299 12.0361 12.3452 12.4658 11.914 12.774C11.4828 13.0823 10.9341 13.2483 10.3692 13.2414H5.87752C5.79092 13.2414 5.70786 13.2123 5.64663 13.1606C5.58539 13.1088 5.55099 13.0387 5.55099 12.9655V9.65517Z" fill="#667085"/>
</svg>
