<svg width="16" height="16" viewBox="0 0 16 16" fill="none" xmlns="http://www.w3.org/2000/svg">
<path d="M15.5195 1.5127H0.48048C0.216216 1.5127 0 1.72891 0 1.99318C0 2.25744 0.216216 2.47366 0.48048 2.47366H15.5195C15.7838 2.47366 16 2.25744 16 1.99318C16 1.72891 15.7838 1.5127 15.5195 1.5127Z" fill="#667085"/>
<path d="M13.262 5.50146H2.69142C2.42715 5.50146 2.21094 5.71768 2.21094 5.98195C2.21094 6.24621 2.42715 6.46243 2.69142 6.46243H13.262C13.5263 6.46243 13.7425 6.24621 13.7425 5.98195C13.7425 5.71768 13.5263 5.50146 13.262 5.50146Z" fill="#667085"/>
<path d="M15.5195 9.53711H0.48048C0.216216 9.53711 0 9.75333 0 10.0176C0 10.2819 0.216216 10.4981 0.48048 10.4981H15.5195C15.7838 10.4981 16 10.2819 16 10.0176C16 9.75333 15.7838 9.53711 15.5195 9.53711Z" fill="#667085"/>
<path d="M11.2416 13.5254H4.46681C4.20254 13.5254 3.98633 13.7416 3.98633 14.0059C3.98633 14.2701 4.20254 14.4864 4.46681 14.4864H11.2416C11.5058 14.4864 11.7221 14.2701 11.7221 14.0059C11.7221 13.7416 11.5058 13.5254 11.2416 13.5254Z" fill="#667085"/>
</svg>
