<svg width="12" height="16" viewBox="0 0 12 16" fill="none" xmlns="http://www.w3.org/2000/svg">
<path d="M11.1429 0H7.71192C7.71044 0 7.70895 0 7.70741 0H4.28574C3.81236 0 3.42859 0.325621 3.42859 0.727266C3.42859 1.12891 3.81236 1.45453 4.28574 1.45453H6.66877L3.58305 14.5453H0.857147C0.383773 14.5453 0 14.8709 0 15.2726C0 15.6742 0.383773 15.9999 0.857147 15.9999H4.28322C4.28436 15.9999 4.28551 16 4.28659 16C4.28791 16 4.28916 15.9999 4.29036 15.9999H7.71426C8.18764 15.9999 8.57141 15.6742 8.57141 15.2726C8.57141 14.8709 8.18764 14.5453 7.71426 14.5453H5.33123L8.41695 1.45453H11.1429C11.6162 1.45453 12 1.12891 12 0.727266C12 0.325621 11.6163 0 11.1429 0Z" fill="#667085"/>
</svg>
