<svg width="15" height="13" viewBox="0 0 15 13" fill="none" xmlns="http://www.w3.org/2000/svg">
<path d="M13.8283 8.99854H0.828308C0.528308 8.99854 0.328308 8.79853 0.328308 8.49854C0.328308 8.19853 0.528308 7.99854 0.828308 7.99854H13.8283C14.1283 7.99854 14.3283 8.19853 14.3283 8.49854C14.3283 8.79853 14.1283 8.99854 13.8283 8.99854ZM9.82267 4.99854H0.828308C0.528308 4.99854 0.328308 4.79853 0.328308 4.49854C0.328308 4.19853 0.528308 3.99854 0.828308 3.99854H9.82267C10.1227 3.99854 10.3227 4.19853 10.3227 4.49854C10.3227 4.79853 10.1227 4.99854 9.82267 4.99854ZM0.828308 11.9985H7.09383C7.39383 11.9985 7.59383 12.1985 7.59383 12.4985C7.59383 12.7985 7.39383 12.9985 7.09383 12.9985H0.828308C0.528308 12.9985 0.328308 12.7985 0.328308 12.4985C0.328308 12.1985 0.528308 11.9985 0.828308 11.9985ZM13.8283 0.998534H0.828308C0.528308 0.998534 0.328308 0.798534 0.328308 0.498534C0.328308 0.198535 0.528308 -0.0014658 0.828308 -0.0014658H13.8283C14.1283 -0.0014658 14.3283 0.198535 14.3283 0.498534C14.3283 0.798534 14.1283 0.998534 13.8283 0.998534Z" fill="#667085"/>
</svg>
