<svg width="16" height="16" viewBox="0 0 16 16" fill="none" xmlns="http://www.w3.org/2000/svg">
<path d="M1.5 10.4995L14.5 10.4995C14.8 10.4995 15 10.2995 15 9.99951C15 9.69951 14.8 9.49951 14.5 9.49951L1.5 9.49951C1.2 9.49951 0.999999 9.69951 0.999999 9.99951C0.999999 10.2995 1.2 10.4995 1.5 10.4995ZM5.50564 6.49951L14.5 6.49951C14.8 6.49951 15 6.29951 15 5.99951C15 5.69951 14.8 5.49951 14.5 5.49951L5.50564 5.49951C5.20564 5.49951 5.00564 5.69951 5.00564 5.99951C5.00564 6.29951 5.20564 6.49951 5.50564 6.49951ZM14.5 13.4995H8.23448C7.93448 13.4995 7.73448 13.6995 7.73448 13.9995C7.73448 14.2995 7.93448 14.4995 8.23448 14.4995H14.5C14.8 14.4995 15 14.2995 15 13.9995C15 13.6995 14.8 13.4995 14.5 13.4995ZM1.5 2.49951L14.5 2.49951C14.8 2.49951 15 2.29951 15 1.99951C15 1.69951 14.8 1.49951 14.5 1.49951L1.5 1.49951C1.2 1.49951 0.999999 1.69951 0.999999 1.99951C0.999999 2.29951 1.2 2.49951 1.5 2.49951Z" fill="#667085"/>
</svg>
